<?xml version="1.0" standalone="no"?><!DOCTYPE svg PUBLIC "-//W3C//DTD SVG 1.1//EN" "http://www.w3.org/Graphics/SVG/1.1/DTD/svg11.dtd"><svg class="icon" width="200px" height="200.00px" viewBox="0 0 1024 1024" version="1.1" xmlns="http://www.w3.org/2000/svg"><path d="M505.173333 416.426666 122.88 27.306666c-27.306667-27.306667-68.266667-27.306667-102.4 0l0 0c-27.306667 27.306667-27.306667 68.266667 0 102.4L409.6 512l-389.12 389.12c-27.306667 27.306667-27.306667 68.266667 0 102.4l0 0c27.306667 27.306667 68.266667 27.306667 102.4 0l389.12-389.12 389.12 389.12c27.306667 27.306667 68.266667 27.306667 102.4 0l0 0c27.306667-27.306667 27.306667-68.266667 0-102.4L607.573333 512l389.12-389.12c27.306667-27.306667 27.306667-68.266667 0-102.4l0 0c-27.306667-27.306667-68.266667-27.306667-102.4 0L505.173333 416.426666 505.173333 416.426666z" /></svg>
