<?xml version="1.0" standalone="no"?><!DOCTYPE svg PUBLIC "-//W3C//DTD SVG 1.1//EN" "http://www.w3.org/Graphics/SVG/1.1/DTD/svg11.dtd"><svg t="1567674406185" class="icon" viewBox="0 0 1024 1024" version="1.1" xmlns="http://www.w3.org/2000/svg" p-id="2103" xmlns:xlink="http://www.w3.org/1999/xlink" width="200" height="200"><defs><style type="text/css"></style></defs><path d="M560 528C560 554.496 538.624 576 512 576l0 0C485.568 576 464 554.496 464 528l0-224C464 277.44 485.568 256 512 256l0 0c26.624 0 48 21.44 48 48L560 528zM560 720c0-26.496-21.376-48-48-48-26.432 0-48 21.504-48 48S485.568 768 512 768C538.624 768 560 746.496 560 720zM512 64C264.64 64 64 264.64 64 512c0 247.424 200.64 448 448 448 247.488 0 448-200.576 448-448C960 264.64 759.488 64 512 64zM512 896.768c-212.48 0-384.768-172.224-384.768-384.768S299.52 127.232 512 127.232 896.64 299.52 896.64 512 724.48 896.768 512 896.768z" p-id="2104"></path></svg>